<mxfile host="Electron" agent="Mozilla/5.0 (Macintosh; Intel Mac OS X 10_15_7) AppleWebKit/537.36 (KHTML, like Gecko) draw.io/24.7.8 Chrome/128.0.6613.36 Electron/32.0.1 Safari/537.36" version="24.7.8">
  <diagram name="Page-1" id="OmKtowGn8H8DMi2vaC87">
    <mxGraphModel dx="954" dy="727" grid="1" gridSize="10" guides="1" tooltips="1" connect="1" arrows="1" fold="1" page="1" pageScale="1" pageWidth="827" pageHeight="1169" math="0" shadow="0">
      <root>
        <mxCell id="0" />
        <mxCell id="1" parent="0" />
        <mxCell id="R4QLlYFB-Q4fLhcf3czK-1" value="Customer" style="shape=umlLifeline;perimeter=lifelinePerimeter;whiteSpace=wrap;html=1;container=1;dropTarget=0;collapsible=0;recursiveResize=0;outlineConnect=0;portConstraint=eastwest;newEdgeStyle={&quot;curved&quot;:0,&quot;rounded&quot;:0};" vertex="1" parent="1">
          <mxGeometry x="50" y="50" width="100" height="70" as="geometry" />
        </mxCell>
        <mxCell id="R4QLlYFB-Q4fLhcf3czK-2" value="" style="html=1;points=[[0,0,0,0,5],[0,1,0,0,-5],[1,0,0,0,5],[1,1,0,0,-5]];perimeter=orthogonalPerimeter;outlineConnect=0;targetShapes=umlLifeline;portConstraint=eastwest;newEdgeStyle={&quot;curved&quot;:0,&quot;rounded&quot;:0};" vertex="1" parent="1">
          <mxGeometry x="90" y="120" width="20" height="400" as="geometry" />
        </mxCell>
        <mxCell id="R4QLlYFB-Q4fLhcf3czK-3" value="" style="endArrow=none;dashed=1;html=1;rounded=0;" edge="1" parent="1" target="R4QLlYFB-Q4fLhcf3czK-2">
          <mxGeometry width="50" height="50" relative="1" as="geometry">
            <mxPoint x="100" y="550" as="sourcePoint" />
            <mxPoint x="450" y="340" as="targetPoint" />
            <Array as="points">
              <mxPoint x="100" y="520" />
            </Array>
          </mxGeometry>
        </mxCell>
        <mxCell id="R4QLlYFB-Q4fLhcf3czK-4" value="Room" style="shape=umlLifeline;perimeter=lifelinePerimeter;whiteSpace=wrap;html=1;container=1;dropTarget=0;collapsible=0;recursiveResize=0;outlineConnect=0;portConstraint=eastwest;newEdgeStyle={&quot;curved&quot;:0,&quot;rounded&quot;:0};" vertex="1" parent="1">
          <mxGeometry x="215" y="50" width="100" height="70" as="geometry" />
        </mxCell>
        <mxCell id="R4QLlYFB-Q4fLhcf3czK-5" value="" style="html=1;points=[[0,0,0,0,5],[0,1,0,0,-5],[1,0,0,0,5],[1,1,0,0,-5]];perimeter=orthogonalPerimeter;outlineConnect=0;targetShapes=umlLifeline;portConstraint=eastwest;newEdgeStyle={&quot;curved&quot;:0,&quot;rounded&quot;:0};" vertex="1" parent="1">
          <mxGeometry x="255" y="120" width="20" height="190" as="geometry" />
        </mxCell>
        <mxCell id="R4QLlYFB-Q4fLhcf3czK-6" value="" style="endArrow=none;dashed=1;html=1;rounded=0;" edge="1" parent="1">
          <mxGeometry width="50" height="50" relative="1" as="geometry">
            <mxPoint x="264.5" y="550" as="sourcePoint" />
            <mxPoint x="264.5" y="310" as="targetPoint" />
          </mxGeometry>
        </mxCell>
        <mxCell id="R4QLlYFB-Q4fLhcf3czK-10" value="Administration" style="shape=umlLifeline;perimeter=lifelinePerimeter;whiteSpace=wrap;html=1;container=1;dropTarget=0;collapsible=0;recursiveResize=0;outlineConnect=0;portConstraint=eastwest;newEdgeStyle={&quot;curved&quot;:0,&quot;rounded&quot;:0};" vertex="1" parent="1">
          <mxGeometry x="400" y="50" width="100" height="260" as="geometry" />
        </mxCell>
        <mxCell id="R4QLlYFB-Q4fLhcf3czK-13" value="" style="html=1;points=[[0,0,0,0,5],[0,1,0,0,-5],[1,0,0,0,5],[1,1,0,0,-5]];perimeter=orthogonalPerimeter;outlineConnect=0;targetShapes=umlLifeline;portConstraint=eastwest;newEdgeStyle={&quot;curved&quot;:0,&quot;rounded&quot;:0};" vertex="1" parent="1">
          <mxGeometry x="440" y="450" width="20" height="70" as="geometry" />
        </mxCell>
        <mxCell id="R4QLlYFB-Q4fLhcf3czK-14" value="" style="endArrow=none;dashed=1;html=1;rounded=0;" edge="1" parent="1" target="R4QLlYFB-Q4fLhcf3czK-13">
          <mxGeometry width="50" height="50" relative="1" as="geometry">
            <mxPoint x="450" y="550" as="sourcePoint" />
            <mxPoint x="450" y="340" as="targetPoint" />
          </mxGeometry>
        </mxCell>
        <mxCell id="R4QLlYFB-Q4fLhcf3czK-15" value="Transaction" style="shape=umlLifeline;perimeter=lifelinePerimeter;whiteSpace=wrap;html=1;container=1;dropTarget=0;collapsible=0;recursiveResize=0;outlineConnect=0;portConstraint=eastwest;newEdgeStyle={&quot;curved&quot;:0,&quot;rounded&quot;:0};" vertex="1" parent="1">
          <mxGeometry x="600" y="50" width="100" height="350" as="geometry" />
        </mxCell>
        <mxCell id="R4QLlYFB-Q4fLhcf3czK-16" value="" style="html=1;points=[[0,0,0,0,5],[0,1,0,0,-5],[1,0,0,0,5],[1,1,0,0,-5]];perimeter=orthogonalPerimeter;outlineConnect=0;targetShapes=umlLifeline;portConstraint=eastwest;newEdgeStyle={&quot;curved&quot;:0,&quot;rounded&quot;:0};" vertex="1" parent="1">
          <mxGeometry x="641.25" y="400" width="17.5" height="60" as="geometry" />
        </mxCell>
        <mxCell id="R4QLlYFB-Q4fLhcf3czK-17" value="" style="endArrow=none;dashed=1;html=1;rounded=0;" edge="1" parent="1" target="R4QLlYFB-Q4fLhcf3czK-16">
          <mxGeometry width="50" height="50" relative="1" as="geometry">
            <mxPoint x="650" y="560" as="sourcePoint" />
            <mxPoint x="450" y="340" as="targetPoint" />
          </mxGeometry>
        </mxCell>
        <mxCell id="R4QLlYFB-Q4fLhcf3czK-19" value="Return Status" style="html=1;verticalAlign=bottom;endArrow=open;dashed=1;endSize=8;curved=0;rounded=0;" edge="1" parent="1">
          <mxGeometry relative="1" as="geometry">
            <mxPoint x="250" y="240" as="sourcePoint" />
            <mxPoint x="110" y="240" as="targetPoint" />
            <Array as="points">
              <mxPoint x="180" y="240" />
            </Array>
          </mxGeometry>
        </mxCell>
        <mxCell id="R4QLlYFB-Q4fLhcf3czK-20" value="Confirm Booking Status" style="html=1;verticalAlign=bottom;endArrow=open;dashed=1;endSize=8;curved=0;rounded=0;" edge="1" parent="1" source="R4QLlYFB-Q4fLhcf3czK-32">
          <mxGeometry relative="1" as="geometry">
            <mxPoint x="370" y="360" as="sourcePoint" />
            <mxPoint x="110" y="360" as="targetPoint" />
            <Array as="points">
              <mxPoint x="180" y="360" />
            </Array>
          </mxGeometry>
        </mxCell>
        <mxCell id="R4QLlYFB-Q4fLhcf3czK-22" value="Return Transaction Info" style="html=1;verticalAlign=bottom;endArrow=open;dashed=1;endSize=8;curved=0;rounded=0;" edge="1" parent="1">
          <mxGeometry relative="1" as="geometry">
            <mxPoint x="640" y="440" as="sourcePoint" />
            <mxPoint x="110" y="440" as="targetPoint" />
            <Array as="points" />
          </mxGeometry>
        </mxCell>
        <mxCell id="R4QLlYFB-Q4fLhcf3czK-23" value="Receipt" style="html=1;verticalAlign=bottom;endArrow=open;dashed=1;endSize=8;curved=0;rounded=0;" edge="1" parent="1">
          <mxGeometry relative="1" as="geometry">
            <mxPoint x="440" y="510" as="sourcePoint" />
            <mxPoint x="110" y="510" as="targetPoint" />
            <Array as="points">
              <mxPoint x="180" y="510" />
            </Array>
          </mxGeometry>
        </mxCell>
        <mxCell id="R4QLlYFB-Q4fLhcf3czK-25" value="" style="edgeStyle=elbowEdgeStyle;fontSize=12;html=1;endArrow=blockThin;endFill=1;rounded=0;" edge="1" parent="1">
          <mxGeometry width="160" relative="1" as="geometry">
            <mxPoint x="270" y="309" as="sourcePoint" />
            <mxPoint x="440" y="309" as="targetPoint" />
          </mxGeometry>
        </mxCell>
        <mxCell id="R4QLlYFB-Q4fLhcf3czK-26" value="Send Booking Information" style="edgeLabel;html=1;align=center;verticalAlign=middle;resizable=0;points=[];" vertex="1" connectable="0" parent="R4QLlYFB-Q4fLhcf3czK-25">
          <mxGeometry x="0.1647" y="-2" relative="1" as="geometry">
            <mxPoint x="-23" y="-1" as="offset" />
          </mxGeometry>
        </mxCell>
        <mxCell id="R4QLlYFB-Q4fLhcf3czK-28" value="Return list" style="html=1;verticalAlign=bottom;endArrow=open;dashed=1;endSize=8;curved=0;rounded=0;" edge="1" parent="1" target="R4QLlYFB-Q4fLhcf3czK-2">
          <mxGeometry relative="1" as="geometry">
            <mxPoint x="250" y="160" as="sourcePoint" />
            <mxPoint x="120" y="160" as="targetPoint" />
          </mxGeometry>
        </mxCell>
        <mxCell id="R4QLlYFB-Q4fLhcf3czK-29" value="Request room" style="html=1;verticalAlign=bottom;endArrow=block;curved=0;rounded=0;exitX=1;exitY=0;exitDx=0;exitDy=5;exitPerimeter=0;" edge="1" parent="1">
          <mxGeometry width="80" relative="1" as="geometry">
            <mxPoint x="110" y="127" as="sourcePoint" />
            <mxPoint x="255" y="122" as="targetPoint" />
            <Array as="points">
              <mxPoint x="110" y="122" />
            </Array>
          </mxGeometry>
        </mxCell>
        <mxCell id="R4QLlYFB-Q4fLhcf3czK-31" value="Check room availability" style="html=1;verticalAlign=bottom;endArrow=block;curved=0;rounded=0;exitX=1;exitY=0;exitDx=0;exitDy=5;exitPerimeter=0;" edge="1" parent="1">
          <mxGeometry width="80" relative="1" as="geometry">
            <mxPoint x="110" y="205" as="sourcePoint" />
            <mxPoint x="255" y="200" as="targetPoint" />
            <Array as="points">
              <mxPoint x="110" y="200" />
            </Array>
          </mxGeometry>
        </mxCell>
        <mxCell id="R4QLlYFB-Q4fLhcf3czK-32" value="" style="html=1;points=[[0,0,0,0,5],[0,1,0,0,-5],[1,0,0,0,5],[1,1,0,0,-5]];perimeter=orthogonalPerimeter;outlineConnect=0;targetShapes=umlLifeline;portConstraint=eastwest;newEdgeStyle={&quot;curved&quot;:0,&quot;rounded&quot;:0};" vertex="1" parent="1">
          <mxGeometry x="440" y="310" width="20" height="80" as="geometry" />
        </mxCell>
        <mxCell id="R4QLlYFB-Q4fLhcf3czK-33" value="" style="endArrow=none;dashed=1;html=1;rounded=0;" edge="1" parent="1" source="R4QLlYFB-Q4fLhcf3czK-13">
          <mxGeometry width="50" height="50" relative="1" as="geometry">
            <mxPoint x="400" y="390" as="sourcePoint" />
            <mxPoint x="450" y="390" as="targetPoint" />
          </mxGeometry>
        </mxCell>
        <mxCell id="R4QLlYFB-Q4fLhcf3czK-34" value="Send Transaction Details" style="html=1;verticalAlign=bottom;endArrow=block;curved=0;rounded=0;exitX=1;exitY=0;exitDx=0;exitDy=5;exitPerimeter=0;" edge="1" parent="1" target="R4QLlYFB-Q4fLhcf3czK-13">
          <mxGeometry width="80" relative="1" as="geometry">
            <mxPoint x="110" y="485" as="sourcePoint" />
            <mxPoint x="430" y="480" as="targetPoint" />
            <Array as="points">
              <mxPoint x="110" y="480" />
            </Array>
          </mxGeometry>
        </mxCell>
        <mxCell id="R4QLlYFB-Q4fLhcf3czK-35" value="Transfer" style="html=1;verticalAlign=bottom;endArrow=block;curved=0;rounded=0;exitX=1;exitY=0;exitDx=0;exitDy=5;exitPerimeter=0;" edge="1" parent="1">
          <mxGeometry width="80" relative="1" as="geometry">
            <mxPoint x="110" y="415" as="sourcePoint" />
            <mxPoint x="640" y="410" as="targetPoint" />
            <Array as="points">
              <mxPoint x="110" y="410" />
            </Array>
          </mxGeometry>
        </mxCell>
        <mxCell id="R4QLlYFB-Q4fLhcf3czK-36" value="Booking room" style="html=1;verticalAlign=bottom;endArrow=block;curved=0;rounded=0;exitX=1;exitY=0;exitDx=0;exitDy=5;exitPerimeter=0;" edge="1" parent="1" target="R4QLlYFB-Q4fLhcf3czK-5">
          <mxGeometry width="80" relative="1" as="geometry">
            <mxPoint x="110" y="285" as="sourcePoint" />
            <mxPoint x="250" y="280" as="targetPoint" />
            <Array as="points">
              <mxPoint x="110" y="280" />
            </Array>
          </mxGeometry>
        </mxCell>
      </root>
    </mxGraphModel>
  </diagram>
</mxfile>
